<svg id="Layer_1" data-name="Layer 1" xmlns="http://www.w3.org/2000/svg" viewBox="0 0 230.99 48.88"><defs><style>.cls-1{fill:#231f20;stroke:#231f20;stroke-miterlimit:10;stroke-width:0.73px;}</style></defs><title>cctvlogoblack</title><path class="cls-1" d="M230.78,29.68a28.89,28.89,0,0,0-9.4,9.09,42.17,42.17,0,0,1-4.07-9,2.72,2.72,0,0,0-4.5-1.19,53.33,53.33,0,0,0-5.27,6.7l-2.95-4.08a2.72,2.72,0,0,0-3.68-1c-4.92,3.36-20,8-26.27,5.63-3.06-1.16-3.66-5.28-1.19-11.74a2.69,2.69,0,0,0-4.69-2.56l-12,16.35-.69-15.63a2.72,2.72,0,0,0-2-2.49h0a2.73,2.73,0,0,0-3,1.14s-15.21,28.83-23.35,20.16c-3-3.24,3.09-12.88,6.67-18.1h9a2.7,2.7,0,0,0,0-5.4l-6.14,0c4.12-7.29,4.52-8.26,5.32-9.66a2.35,2.35,0,0,0-1-3.46A2.69,2.69,0,0,0,138,5.59l-6.89,12-8.52,0a2.7,2.7,0,0,0,0,5.4l5.65,0S118,42.9,108.68,43.41c-4.16.23-6.92-2.33-7-5.95a13.78,13.78,0,0,1,3.94-9.18,6.85,6.85,0,0,1,4.47-2.38c.69,0,1.62.19,1.62,1.89a6.38,6.38,0,0,1-.4,2.08,2.7,2.7,0,1,0,5.1,1.77,11.86,11.86,0,0,0,.7-3.85c0-4.29-1.16-7.29-7-7.29a11.12,11.12,0,0,0-8.33,4c-6.13,7.07-9.63,17.66-19.22,18.89a6,6,0,0,1-7-5.95,13.78,13.78,0,0,1,3.94-9.18,6.85,6.85,0,0,1,4.46-2.38c.7,0,1.63.19,1.63,1.89a6.65,6.65,0,0,1-.4,2.08,2.69,2.69,0,1,0,5.09,1.77A11.62,11.62,0,0,0,91,27.79c0-4.29-2.89-7.29-7-7.29a11.93,11.93,0,0,0-8.32,4c-3.44,3.51-4.39,7.5-7.93,10C58,41.28,45.55,37.1,40.78,33.38c-1.26-1-3.37-1.17-4.22.55a96.56,96.56,0,0,0-4,9.24l-4.88-8.51a2.72,2.72,0,0,0-4.23-.54l-7,6.4c-2.62-1.68-4.91-3.37-7.49-5.07S3.16,37.07,5.09,39c3.45,3.45,5.83,4.71,9.18,7.3a3,3,0,0,0,3.81,0l6.6-6Q27.77,45.64,30.84,51a2.72,2.72,0,0,0,4.92-.64,89.81,89.81,0,0,1,4.13-10.94c10.77,6.29,25.18,4.5,30.75,1.48,1.53,4.79,6,8,11.89,8,5.38,0,10.34-2.67,14.55-7.19,1.74,4.36,6,7.19,11.6,7.19,5.07,0,9.78-2.37,13.82-6.43a8.91,8.91,0,0,0,.64,1.36s1,4.6,8.87,4.3c8.77-.34,19.66-16.76,19.66-16.76l.06,14.5c.05,1.08-.68,2.05.42,2.38a2,2,0,0,0,.78.21,2.63,2.63,0,0,0,2.17-1.19L167,33.1c.68,3.74,1.65,6,5.29,7.6,6.2,2.68,22.51-.51,29.3-4.54l3.83,5.29c1.13,1.57,3.59,1.91,4.65,0a48.11,48.11,0,0,1,3.76-5.71,46.7,46.7,0,0,0,5.5,9.61c1.06,1.42,3.73,2,4.65,0a23.54,23.54,0,0,1,9.54-11C236.44,32.52,233.74,27.86,230.78,29.68Z" transform="translate(-4.14 -3.79)"/></svg>